<svg width="79" height="31" viewBox="0 0 79 31" fill="none" xmlns="http://www.w3.org/2000/svg">
<path d="M24.8797 13.2523L16.8218 1.10779H22.7103L27.2558 9.04586L32.0768 1.10779H37.6899L29.5974 13.2523V22.2759H24.8797V13.2523Z" fill="white"/>
<path d="M66.5816 7.28181L63.9645 13.8629H69.1987L66.5816 7.28181ZM64.7565 1.10779H68.6822L78.0143 22.2759H72.6767L70.8172 17.798H62.4837L60.6931 22.2759H55.4933L64.7565 1.10779Z" fill="white"/>
<path d="M74.5028 2.73615C74.5028 3.55031 75.157 4.19486 75.9835 4.22878C76.81 4.22878 77.4642 3.58423 77.4987 2.73615C77.4987 1.922 76.8444 1.27745 75.9835 1.24353C75.157 1.27745 74.5028 1.922 74.5028 2.73615ZM74.124 2.73615C74.124 1.71845 74.9504 0.904297 75.9835 0.904297C77.0166 0.904297 77.843 1.71845 77.843 2.73615C77.843 3.75385 77.0166 4.56801 75.9835 4.56801C74.9849 4.56801 74.124 3.75385 74.124 2.73615Z" fill="white"/>
<path d="M75.9828 2.49884C76.2238 2.49884 76.4993 2.46491 76.4993 2.22745C76.4993 1.98999 76.2582 1.95607 76.0172 1.95607H75.6384V2.49884H75.9828ZM75.2596 1.65076H76.0861C76.5337 1.65076 76.947 1.78645 76.947 2.22745C76.947 2.53276 76.7403 2.7363 76.396 2.77022L77.0158 3.65223H76.4993L75.9483 2.80415H75.6384V3.65223H75.2252V1.65076H75.2596Z" fill="white"/>
<path d="M43.6818 18.3408H47.9174C49.3981 18.3408 51.0854 17.7302 51.0854 15.8644C51.0854 13.8629 48.8127 13.5237 47.2631 13.5237H43.6818V18.3408ZM43.6818 9.5886H47.1254C48.5716 9.5886 50.0868 8.97798 50.0868 7.28181C50.0868 5.51781 48.3994 5.07681 46.9187 5.07681H43.7162V9.5886H43.6818ZM38.9641 1.10779H46.9532C50.7066 1.10779 54.8045 1.88802 54.8045 6.50159C54.8045 8.87623 53.3237 10.4706 51.1199 11.1491V11.2169C53.9436 11.5901 55.8031 13.6255 55.8031 16.3732C55.8031 20.7833 51.5675 22.242 47.7452 22.242H38.9641V1.10779Z" fill="white"/>
<path d="M5.52672 9.85998H8.31602C10.0378 9.85998 12.2761 9.79217 12.2761 7.48537C12.2761 5.3482 10.3478 5.04289 8.59149 5.04289H5.49229V9.85998H5.52672ZM0.809021 1.10779H9.10803C13.5158 1.10779 17.2004 2.60041 17.2004 7.55318C17.2004 10.5045 15.582 12.8113 12.5516 13.3541L18.0269 22.2759H12.345L7.86836 13.829H5.52672V22.2759H0.809021V1.10779Z" fill="white"/>
<path d="M-1.77386 27.1948H-0.603047C-0.430868 27.1948 -0.293126 27.1948 -0.120947 27.2287C0.0167967 27.2627 0.154534 27.2966 0.257841 27.3984C0.361149 27.4662 0.464457 27.568 0.533328 27.7037C0.6022 27.8394 0.636635 28.009 0.636635 28.1786C0.636635 28.3821 0.6022 28.5178 0.533328 28.6535C0.464457 28.7892 0.395592 28.891 0.292284 28.9588C0.188977 29.0267 0.0512275 29.0945 -0.0865099 29.1284C-0.224253 29.1624 -0.396433 29.1624 -0.568612 29.1624H-1.08515V30.4515H-1.77386V27.1948ZM-1.08515 28.5857H-0.603047C-0.534176 28.5857 -0.465305 28.5857 -0.430869 28.5518C-0.396433 28.5178 -0.327562 28.5178 -0.25869 28.4839C-0.224254 28.45 -0.189818 28.4161 -0.155388 28.3482C-0.120952 28.3143 -0.120947 28.2464 -0.120947 28.1447C-0.120947 28.0768 -0.155382 28.009 -0.189818 27.9411C-0.224254 27.8733 -0.25869 27.8394 -0.327562 27.8394C-0.396434 27.8054 -0.465304 27.8054 -0.534176 27.7715C-0.603047 27.7715 -0.671919 27.7715 -0.740791 27.7715H-1.08515V28.5857Z" fill="white"/>
<path d="M1.6352 27.8394H0.739868V27.1948H3.25368V27.8394H2.35835V30.4515H1.6352V27.8394Z" fill="white"/>
<path d="M3.63257 27.1948H5.76759V27.8733H4.32128V28.4839H5.69871V29.1284H4.32128V29.8069H5.87089V30.4515H3.63257V27.1948Z" fill="white"/>
<path d="M9.10918 29.1963C9.10918 29.3998 9.07475 29.5695 9.04032 29.7391C8.97144 29.9087 8.90257 30.0444 8.79926 30.1801C8.69595 30.3158 8.55821 30.3836 8.38604 30.4515C8.21386 30.5193 8.04167 30.5532 7.80063 30.5532C7.59401 30.5532 7.3874 30.5193 7.21522 30.4515C7.04304 30.3836 6.9053 30.2818 6.80199 30.1801C6.69868 30.0444 6.59537 29.9087 6.56094 29.7391C6.49206 29.5695 6.49207 29.3998 6.49207 29.1963V27.1948H7.18078V29.1624C7.18078 29.2641 7.18078 29.3659 7.21522 29.4338C7.24965 29.5355 7.28409 29.6034 7.35296 29.6712C7.42183 29.7391 7.4907 29.773 7.55957 29.8069C7.62845 29.8408 7.73176 29.8748 7.80063 29.8748C7.90394 29.8748 7.97281 29.8408 8.04168 29.8069C8.11055 29.773 8.17942 29.7391 8.24829 29.6712C8.31716 29.6034 8.3516 29.5355 8.38604 29.4338C8.42047 29.332 8.42047 29.2641 8.42047 29.1624V27.1948H9.10918V29.1963Z" fill="white"/>
<path d="M9.72797 27.1948H10.9677C11.1398 27.1948 11.2776 27.1948 11.4153 27.2287C11.5531 27.2627 11.6908 27.3305 11.7941 27.3984C11.8974 27.4662 12.0007 27.568 12.0696 27.7037C12.1385 27.8394 12.1729 27.9751 12.1729 28.1786C12.1729 28.4161 12.104 28.6196 12.0007 28.7553C11.8974 28.9249 11.7252 29.0267 11.4842 29.0606L12.2762 30.4515H11.4498L10.7955 29.1284H10.4511V30.4515H9.7624V27.1948H9.72797ZM10.4511 28.5518H10.8643C10.9332 28.5518 11.0021 28.5518 11.071 28.5518C11.1398 28.5518 11.2087 28.5178 11.2776 28.5178C11.3465 28.4839 11.3809 28.45 11.4153 28.4161C11.4498 28.3821 11.4842 28.3143 11.4842 28.2125C11.4842 28.1447 11.4842 28.0768 11.4498 28.009C11.4153 27.9751 11.3809 27.9072 11.312 27.9072C11.2776 27.8733 11.2087 27.8733 11.1398 27.8394C11.071 27.8394 11.0021 27.8394 10.9332 27.8394H10.4856V28.5518H10.4511Z" fill="white"/>
<path d="M14.8598 29.0265H13.7579V29.5693H14.8598V29.0265Z" fill="white"/>
<path d="M16.6497 27.1948H18.7503V27.8733H17.3384V28.5178H18.647V29.1963H17.3384V30.4515H16.6497V27.1948Z" fill="white"/>
<path d="M20.0594 27.1948H20.6448L22.0223 30.4515H21.2302L20.9548 29.773H19.7151L19.4396 30.4515H18.682L20.0594 27.1948ZM20.3349 28.1447L19.9561 29.1624H20.7137L20.3349 28.1447Z" fill="white"/>
<path d="M22.3315 27.1948H23.5023C23.64 27.1948 23.7778 27.1948 23.9155 27.2287C24.0533 27.2627 24.191 27.2966 24.2943 27.3644C24.3976 27.4323 24.5009 27.5001 24.5698 27.6019C24.6387 27.7037 24.6731 27.8394 24.6731 28.0429C24.6731 28.2125 24.6387 28.3821 24.5354 28.5178C24.4321 28.6535 24.2943 28.7214 24.1566 28.7892C24.2599 28.7892 24.3632 28.8231 24.4321 28.891C24.5009 28.9249 24.6042 28.9928 24.6387 29.0606C24.7075 29.1284 24.742 29.1963 24.7764 29.2981C24.8109 29.3998 24.8109 29.5016 24.8109 29.6034C24.8109 29.773 24.7764 29.9087 24.7076 30.0444C24.6387 30.1461 24.5354 30.2479 24.4321 30.3158C24.3288 30.3836 24.191 30.4515 24.0533 30.4854C23.9155 30.5193 23.7778 30.5193 23.64 30.5193H22.3315V27.1948ZM23.0202 28.5178H23.5367C23.6056 28.5178 23.64 28.5178 23.7089 28.4839C23.7778 28.4839 23.8122 28.45 23.8467 28.4161C23.8811 28.3821 23.9155 28.3482 23.95 28.3143C23.9844 28.2804 23.9844 28.2125 23.9844 28.1447C23.9844 28.0768 23.9844 28.009 23.95 27.9751C23.9155 27.9411 23.8811 27.9072 23.8467 27.8733C23.8122 27.8394 23.7434 27.8394 23.7089 27.8054C23.64 27.8054 23.6056 27.8054 23.5367 27.8054H23.0546V28.5178H23.0202ZM23.0202 29.8408H23.64C23.7089 29.8408 23.7433 29.8408 23.8122 29.8069C23.8811 29.8069 23.9155 29.773 23.95 29.7391C23.9844 29.7051 24.0188 29.6712 24.0533 29.6034C24.0877 29.5695 24.0877 29.5016 24.0877 29.4338C24.0877 29.3659 24.0533 29.2981 24.0188 29.2302C23.9844 29.1624 23.95 29.1624 23.8811 29.1284C23.8122 29.0945 23.7778 29.0945 23.7089 29.0606C23.64 29.0606 23.5712 29.0606 23.5367 29.0606H23.0202V29.8408Z" fill="white"/>
<path d="M25.2252 27.1948H26.4648C26.637 27.1948 26.7748 27.1948 26.9125 27.2287C27.0503 27.2627 27.188 27.3305 27.2913 27.3984C27.3946 27.4662 27.4979 27.568 27.5668 27.7037C27.6357 27.8394 27.6701 27.9751 27.6701 28.1786C27.6701 28.4161 27.6012 28.6196 27.4979 28.7553C27.3946 28.9249 27.2224 29.0267 26.9814 29.0606L27.7734 30.4515H26.9469L26.2927 29.1284H25.9483V30.4515H25.2596V27.1948H25.2252ZM25.9483 28.5518H26.3615C26.4304 28.5518 26.4993 28.5518 26.5681 28.5518C26.637 28.5518 26.7059 28.5178 26.7748 28.5178C26.8436 28.4839 26.8781 28.45 26.9125 28.4161C26.9469 28.3821 26.9814 28.3143 26.9814 28.2125C26.9814 28.1447 26.9814 28.0768 26.9469 28.009C26.9125 27.9751 26.8781 27.9072 26.8092 27.9072C26.7748 27.8733 26.7059 27.8733 26.637 27.8394C26.5681 27.8054 26.4993 27.8394 26.4304 27.8394H25.9827V28.5518H25.9483Z" fill="white"/>
<path d="M28.8053 27.1948H28.1166V30.4515H28.8053V27.1948Z" fill="white"/>
<path d="M31.5257 28.0431C31.4569 27.9413 31.388 27.9074 31.2847 27.8395C31.1814 27.8056 31.0781 27.7717 30.9403 27.7717C30.8026 27.7717 30.6993 27.8056 30.5615 27.8395C30.4582 27.9074 30.3549 27.9752 30.286 28.0431C30.2172 28.1448 30.1483 28.2466 30.0794 28.3823C30.045 28.518 30.0106 28.6537 30.0106 28.7894C30.0106 28.959 30.045 29.0947 30.0794 29.1965C30.1139 29.3322 30.1827 29.4339 30.286 29.5357C30.3894 29.6375 30.4582 29.7053 30.5615 29.7392C30.6648 29.8071 30.8026 29.8071 30.9059 29.8071C31.0436 29.8071 31.1814 29.7732 31.2847 29.7053C31.388 29.6375 31.4913 29.5696 31.5602 29.4339L32.1456 29.8749C32.0078 30.0785 31.8357 30.2142 31.629 30.3159C31.4224 30.4177 31.2158 30.4516 31.0092 30.4516C30.7682 30.4516 30.5271 30.4177 30.3205 30.3159C30.1139 30.2481 29.9417 30.1124 29.7695 29.9767C29.6318 29.841 29.494 29.6375 29.4252 29.4339C29.3563 29.2304 29.2874 28.9929 29.2874 28.7215C29.2874 28.4502 29.3218 28.2127 29.4252 28.0092C29.494 27.8056 29.6318 27.6021 29.7695 27.4664C29.9073 27.3307 30.1139 27.195 30.3205 27.1271C30.5271 27.0593 30.7682 26.9915 31.0092 26.9915C31.1125 26.9915 31.1814 26.9915 31.2847 27.0254C31.388 27.0593 31.4913 27.0593 31.5602 27.0932C31.6635 27.1271 31.7323 27.195 31.8357 27.2289C31.939 27.2968 32.0078 27.3646 32.0767 27.4664L31.5257 28.0431Z" fill="white"/>
<path d="M33.558 27.1948H34.1434L35.5209 30.4515H34.7288L34.4534 29.773H33.2137L32.9382 30.4515H32.1806L33.558 27.1948ZM33.8335 28.1447L33.4547 29.1624H34.2123L33.8335 28.1447Z" fill="white"/>
<path d="M35.8301 27.1948H36.7943L38.1373 29.4677V27.1948H38.826V30.4515H37.9307L36.5533 28.1447H36.5189V30.4515H35.8301V27.1948Z" fill="white"/>
<path d="M40.1001 27.8394H39.2048V27.1948H41.6842V27.8394H40.7888V30.4515H40.1001V27.8394Z" fill="white"/>
<path d="M44.2679 29.0265H43.166V29.5693H44.2679V29.0265Z" fill="white"/>
<path d="M46.7133 27.1948H46.0246V30.4515H46.7133V27.1948Z" fill="white"/>
<path d="M47.367 27.1948H48.2968L49.6398 29.4677V27.1948H50.3629V30.4515H49.4331L48.0557 28.1447V30.4515H47.367V27.1948Z" fill="white"/>
<path d="M52.5667 28.0088C52.4979 27.941 52.429 27.8731 52.3257 27.8392C52.2224 27.8053 52.1535 27.7714 52.0502 27.7714C52.0158 27.7714 51.9469 27.7714 51.878 27.8053C51.8092 27.8053 51.7747 27.8392 51.7403 27.8731C51.7058 27.9071 51.637 27.941 51.637 27.9749C51.6025 28.0088 51.6025 28.0767 51.6025 28.1445C51.6025 28.2463 51.637 28.3141 51.7058 28.382C51.7747 28.4498 51.878 28.4838 51.9813 28.5177C52.0846 28.5516 52.2224 28.5855 52.3257 28.6195C52.4634 28.6534 52.5667 28.7212 52.67 28.7891C52.7733 28.8569 52.8767 28.9587 52.9455 29.0605C53.0144 29.1622 53.0488 29.3318 53.0488 29.5354C53.0488 29.705 53.0144 29.8746 52.9455 30.0103C52.8767 30.146 52.8078 30.2478 52.67 30.3495C52.5667 30.4513 52.429 30.5192 52.2913 30.5531C52.1535 30.587 51.9813 30.6209 51.8091 30.6209C51.6025 30.6209 51.3959 30.587 51.2237 30.5192C51.0516 30.4513 50.8794 30.3495 50.7416 30.2138L51.2237 29.6371C51.2926 29.7389 51.3959 29.8068 51.4992 29.8746C51.6025 29.9425 51.7058 29.9425 51.8436 29.9425C51.9125 29.9425 51.9469 29.9425 52.0158 29.9085C52.0846 29.9085 52.1191 29.8746 52.1879 29.8407C52.2568 29.8068 52.2568 29.7728 52.2913 29.7389C52.3257 29.705 52.3257 29.6371 52.3257 29.6032C52.3257 29.5015 52.2912 29.4336 52.2224 29.3658C52.1535 29.2979 52.0502 29.264 51.9469 29.2301C51.8436 29.1961 51.7058 29.1622 51.6025 29.0944C51.4648 29.0605 51.3615 28.9926 51.2582 28.9248C51.1549 28.8569 51.0516 28.7552 50.9827 28.6534C50.9138 28.5516 50.8794 28.382 50.8794 28.2124C50.8794 28.0428 50.9138 27.8731 50.9827 27.7375C51.0516 27.6018 51.1549 27.5 51.2582 27.3982C51.3615 27.2964 51.4992 27.2286 51.637 27.1947C51.7747 27.1608 51.9469 27.1268 52.0846 27.1268C52.2568 27.1268 52.429 27.1608 52.6012 27.1947C52.7734 27.2625 52.9111 27.3304 53.0488 27.4661L52.5667 28.0088Z" fill="white"/>
<path d="M54.1848 27.8394H53.2895V27.1948H55.7689V27.8394H54.8735V30.4515H54.1848V27.8394Z" fill="white"/>
<path d="M56.7679 27.1948H57.3533L58.7307 30.4515H57.9387L57.6632 29.773H56.4235L56.148 30.4515H55.3904L56.7679 27.1948ZM57.0434 28.1447L56.6646 29.1624H57.4222L57.0434 28.1447Z" fill="white"/>
<path d="M59.075 27.1948H59.7637V29.8069H61.0378V30.4515H59.075V27.1948Z" fill="white"/>
<path d="M61.4504 27.1948H62.1735V29.8069H63.4477V30.4515H61.4504V27.1948Z" fill="white"/>
<path d="M64.8942 27.1948H65.4796L66.857 30.4515H66.065L65.7895 29.773H64.5498L64.2743 30.4515H63.5167L64.8942 27.1948ZM65.1352 28.1447L64.7564 29.1624H65.514L65.1352 28.1447Z" fill="white"/>
<path d="M67.3743 27.8394H66.4445V27.1948H68.9583V27.8394H68.063V30.4515H67.3743V27.8394Z" fill="white"/>
<path d="M69.3368 27.1948H71.5063V27.8733H70.0255V28.4839H71.4029V29.1284H70.0255V29.8069H71.5751V30.4515H69.3368V27.1948Z" fill="white"/>
<path d="M74.8116 29.1963C74.8116 29.3998 74.7772 29.5695 74.7428 29.7391C74.6739 29.9087 74.605 30.0444 74.5017 30.1801C74.3984 30.3158 74.2607 30.3836 74.0885 30.4515C73.9163 30.5193 73.7441 30.5532 73.5031 30.5532C73.2965 30.5532 73.0898 30.5193 72.9177 30.4515C72.7455 30.3836 72.6078 30.2818 72.5044 30.1801C72.4011 30.0444 72.2978 29.9087 72.2634 29.7391C72.1945 29.5695 72.1945 29.3998 72.1945 29.1963V27.1948H72.8832V29.1624C72.8832 29.2641 72.8832 29.3659 72.9177 29.4338C72.9521 29.5355 72.9865 29.6034 73.0554 29.6712C73.1243 29.7391 73.1931 29.773 73.262 29.8069C73.3309 29.8408 73.4342 29.8748 73.5031 29.8748C73.6064 29.8748 73.6753 29.8408 73.7441 29.8069C73.813 29.773 73.8819 29.7391 73.9507 29.6712C74.0196 29.6034 74.054 29.5355 74.0885 29.4338C74.1229 29.332 74.1229 29.2641 74.1229 29.1624V27.1948H74.8116V29.1963Z" fill="white"/>
<path d="M75.4313 27.1948H76.671C76.8432 27.1948 76.9809 27.1948 77.1187 27.2287C77.2564 27.2627 77.3942 27.3305 77.4975 27.3984C77.6008 27.4662 77.7041 27.568 77.773 27.7037C77.8418 27.8394 77.8763 27.9751 77.8763 28.1786C77.8763 28.4161 77.8074 28.6196 77.7041 28.7553C77.6008 28.9249 77.4286 29.0267 77.1876 29.0606L77.9796 30.4515H77.1531L76.4988 29.1284H76.1545V30.4515H75.4658V27.1948H75.4313ZM76.1545 28.5518H76.5677C76.6366 28.5518 76.7055 28.5518 76.7743 28.5518C76.8432 28.5518 76.9121 28.5178 76.9809 28.5178C77.0498 28.4839 77.0843 28.45 77.1187 28.4161C77.1531 28.3821 77.1876 28.3143 77.1876 28.2125C77.1876 28.1447 77.1876 28.0768 77.1531 28.009C77.1187 27.9751 77.0843 27.9072 77.0154 27.9072C76.9809 27.8733 76.9121 27.8733 76.8432 27.8394C76.7743 27.8054 76.7055 27.8394 76.6366 27.8394H76.1889V28.5518H76.1545Z" fill="white"/>
</svg>
